{
  "accessors": [
    {
      "bufferView": 2,
      "componentType": 5126,
      "count": 967,
      "max": [
        0.14013245701789856,
        1.0000004768371582,
        1.0000003576278687
      ],
      "min": [
        -0.21891409158706665,
        -1.000000238418579,
        -1.0
      ],
      "type": "VEC3"
    },
    {
      "bufferView": 2,
      "byteOffset": 11604,
      "componentType": 5126,
      "count": 967,
      "max": [
        0.9998487830162048,
        1.0,
        1.0
      ],
      "min": [
        -0.9998487830162048,
        -1.0,
        -1.0
      ],
      "type": "VEC3"
    },
    {
      "bufferView": 1,
      "componentType": 5126,
      "count": 967,
      "max": [
        1.0,
        1.0
      ],
      "min": [
        0.0,
        0.0
      ],
      "type": "VEC2"
    },
    {
      "bufferView": 0,
      "componentType": 5125,
      "count": 3588,
      "type": "SCALAR"
    },
    {
      "bufferView": 3,
      "componentType": 5126,
      "count": 37,
      "max": [
        1.25
      ],
      "min": [
        0.0416666679084301
      ],
      "type": "SCALAR"
    },
    {
      "bufferView": 4,
      "componentType": 5126,
      "count": 37,
      "max": [
        8.331248647837317e-17,
        0.999941349029541,
        8.331248647837317e-17,
        1.0
      ],
      "min": [
        -8.658417108947761e-17,
        -0.827688992023468,
        -8.658417108947761e-17,
        -0.48743936419487
      ],
      "type": "VEC4"
    }
  ],
  "animations": [
    {
      "channels": [
        {
          "sampler": 0,
          "target": {
            "node": 4,
            "path": "rotation"
          }
        }
      ],
      "name": "Take 001",
      "samplers": [
        {
          "input": 4,
          "interpolation": "LINEAR",
          "output": 5
        }
      ]
    }
  ],
  "asset": {
    "extras": {
      "author": "BranHelsing (https://sketchfab.com/BranHelsing)",
      "license": "CC-BY-4.0 (http://creativecommons.org/licenses/by/4.0/)",
      "source": "https://sketchfab.com/3d-models/super-mario-bros-coin-aa97e093847a439f9feb064134813806",
      "title": "Super Mario Bros Coin"
    },
    "generator": "Sketchfab-12.67.0",
    "version": "2.0"
  },
  "bufferViews": [
    {
      "buffer": 0,
      "byteLength": 14352,
      "name": "floatBufferViews",
      "target": 34963
    },
    {
      "buffer": 0,
      "byteLength": 7736,
      "byteOffset": 14352,
      "byteStride": 8,
      "name": "floatBufferViews",
      "target": 34962
    },
    {
      "buffer": 0,
      "byteLength": 23208,
      "byteOffset": 22088,
      "byteStride": 12,
      "name": "floatBufferViews",
      "target": 34962
    },
    {
      "buffer": 0,
      "byteLength": 148,
      "byteOffset": 45296,
      "name": "floatBufferViews"
    },
    {
      "buffer": 0,
      "byteLength": 592,
      "byteOffset": 45444,
      "byteStride": 16,
      "name": "floatBufferViews"
    }
  ],
  "buffers": [
    {
      "byteLength": 46036,
      "uri": "scene.bin"
    }
  ],
  "materials": [
    {
      "doubleSided": true,
      "name": "CoinBlinn",
      "pbrMetallicRoughness": {
        "baseColorFactor": [
          0.445264512,
          0.18586377600000004,
          0.0,
          1.0
        ],
        "metallicFactor": 0.0,
        "roughnessFactor": 0.6
      }
    }
  ],
  "meshes": [
    {
      "name": "Coin_CoinBlinn_0",
      "primitives": [
        {
          "attributes": {
            "NORMAL": 1,
            "POSITION": 0,
            "TEXCOORD_0": 2
          },
          "indices": 3,
          "material": 0,
          "mode": 4
        }
      ]
    }
  ],
  "nodes": [
    {
      "children": [
        1
      ],
      "matrix": [
        0.5880187749862671,
        0.0,
        0.0,
        0.0,
        0.0,
        1.3056639658032656e-16,
        -0.5880187749862671,
        0.0,
        0.0,
        0.5880187749862671,
        1.3056639658032656e-16,
        0.0,
        0.0,
        0.0,
        0.0,
        1.0
      ],
      "name": "Sketchfab_model"
    },
    {
      "children": [
        2
      ],
      "matrix": [
        1.0,
        0.0,
        0.0,
        0.0,
        0.0,
        0.0,
        1.0,
        0.0,
        0.0,
        -1.0,
        0.0,
        0.0,
        0.0,
        0.0,
        0.0,
        1.0
      ],
      "name": "cf2e745973704dfdb6865cceff08da1f.fbx"
    },
    {
      "children": [
        3
      ],
      "name": "Object_2"
    },
    {
      "children": [
        4
      ],
      "name": "RootNode"
    },
    {
      "children": [
        5
      ],
      "name": "Coin",
      "scale": [
        0.4235399663448334,
        0.4235399663448334,
        0.4235399663448334
      ]
    },
    {
      "mesh": 0,
      "name": "Coin_CoinBlinn_0"
    }
  ],
  "scene": 0,
  "scenes": [
    {
      "name": "Sketchfab_Scene",
      "nodes": [
        0
      ]
    }
  ]
}
